# xmcd CD database file
#
# Track frame offsets:
#	150
#	17462
#	38612
#	51962
#	71387
#	93137
#	110837
#	131987
#	150362
#	168587
#
# Disc length: 2495 seconds
#
# Revision: 0
# Processed by: cddbd v1.5.2PL0 Copyright (c) Steve Scherf et al.
# Submitted via: CDex 1.51
#
DISCID=7909bd0a
DTITLE=רון שובל - כבר לא ילד
DYEAR=1990
DGENRE=מזרחי
TTITLE0=תנו לי שיר
TTITLE1=עדר
TTITLE2=המלך מאוהב
TTITLE3=לא פוחד לגדול
TTITLE4=אני אחיך
TTITLE5=דרך כל בשר
TTITLE6=אוהב אותך
TTITLE7=שיר הנפש
TTITLE8=דרך חיי
TTITLE9=אני סומך רק על השמש
EXTD=YEAR: 1990
EXTT0=
EXTT1=
EXTT2=
EXTT3=
EXTT4=
EXTT5=
EXTT6=
EXTT7=
EXTT8=
EXTT9=
PLAYORDER=
